<svg  viewBox="-5 -5 60 60" fill="#293845" xmlns="http://www.w3.org/2000/svg">
	<g>
		<path d="M44.827,41.545L27.634,1.869c-0.312-0.726-1.028-1.195-1.817-1.195h-1.322v5.07c0,1.095-0.889,1.984-1.984,1.984    c-0.004,0-0.009-0.001-0.013-0.001s-0.009,0.001-0.013,0.001c-1.097,0-1.984-0.889-1.984-1.984v-5.07h-1.323    c-0.791,0-1.506,0.469-1.82,1.195L0.164,41.545c-0.266,0.611-0.206,1.316,0.162,1.877c0.368,0.56,0.991,0.896,1.659,0.896h18.514    v-7.716c0-1.097,0.888-1.982,1.984-1.982c0.004,0,0.009,0.002,0.013,0.002s0.009-0.002,0.013-0.002    c1.096,0,1.983,0.888,1.983,1.982v7.716h18.517c0.668,0,1.291-0.337,1.657-0.896C45.033,42.861,45.093,42.156,44.827,41.545z     M24.49,26.314c0,1.099-0.889,1.982-1.983,1.982c-0.004,0-0.009,0-0.013,0c-0.003,0-0.009,0-0.013,0    c-1.097,0-1.984-0.887-1.984-1.982V16.03c0-1.095,0.887-1.984,1.984-1.984c0.004,0,0.009,0.001,0.013,0.001    s0.009-0.001,0.013-0.001c1.098,0,1.983,0.889,1.983,1.984V26.314z" />
	</g>
</svg>
